<mxfile host="app.diagrams.net" modified="2023-12-04T02:03:17.980Z" agent="Mozilla/5.0 (Windows NT 10.0; Win64; x64) AppleWebKit/537.36 (KHTML, like Gecko) Chrome/119.0.0.0 Safari/537.36" etag="i-gHuJiV_ORqBNw8E1d5" version="22.1.5" type="github">
  <diagram name="Page-1" id="D1wTHOpoCVznK_a-yqN4">
    <mxGraphModel dx="1294" dy="668" grid="1" gridSize="10" guides="1" tooltips="1" connect="1" arrows="1" fold="1" page="1" pageScale="1" pageWidth="827" pageHeight="1169" math="0" shadow="0">
      <root>
        <mxCell id="0" />
        <mxCell id="1" parent="0" />
        <mxCell id="9IPaRKAsTYbbkbORtt6L-1" value="" style="rounded=0;whiteSpace=wrap;html=1;" vertex="1" parent="1">
          <mxGeometry x="220" y="170" width="220" height="510" as="geometry" />
        </mxCell>
        <mxCell id="9IPaRKAsTYbbkbORtt6L-2" value="" style="ellipse;whiteSpace=wrap;html=1;" vertex="1" parent="1">
          <mxGeometry x="270" y="170" width="120" height="60" as="geometry" />
        </mxCell>
        <mxCell id="9IPaRKAsTYbbkbORtt6L-3" value="" style="ellipse;whiteSpace=wrap;html=1;" vertex="1" parent="1">
          <mxGeometry x="270" y="250" width="120" height="60" as="geometry" />
        </mxCell>
        <mxCell id="9IPaRKAsTYbbkbORtt6L-4" value="" style="ellipse;whiteSpace=wrap;html=1;" vertex="1" parent="1">
          <mxGeometry x="270" y="322" width="120" height="60" as="geometry" />
        </mxCell>
        <mxCell id="9IPaRKAsTYbbkbORtt6L-5" value="" style="ellipse;whiteSpace=wrap;html=1;" vertex="1" parent="1">
          <mxGeometry x="270" y="395" width="120" height="60" as="geometry" />
        </mxCell>
        <mxCell id="9IPaRKAsTYbbkbORtt6L-6" value="" style="ellipse;whiteSpace=wrap;html=1;" vertex="1" parent="1">
          <mxGeometry x="270" y="463" width="120" height="60" as="geometry" />
        </mxCell>
        <mxCell id="9IPaRKAsTYbbkbORtt6L-7" value="" style="ellipse;whiteSpace=wrap;html=1;" vertex="1" parent="1">
          <mxGeometry x="270" y="536" width="120" height="60" as="geometry" />
        </mxCell>
        <mxCell id="9IPaRKAsTYbbkbORtt6L-8" value="" style="ellipse;whiteSpace=wrap;html=1;" vertex="1" parent="1">
          <mxGeometry x="270" y="608" width="120" height="60" as="geometry" />
        </mxCell>
        <mxCell id="9IPaRKAsTYbbkbORtt6L-9" value="Admin" style="shape=umlActor;verticalLabelPosition=bottom;verticalAlign=top;html=1;outlineConnect=0;" vertex="1" parent="1">
          <mxGeometry x="80" y="379" width="30" height="61" as="geometry" />
        </mxCell>
        <mxCell id="9IPaRKAsTYbbkbORtt6L-10" value="Employee" style="shape=umlActor;verticalLabelPosition=bottom;verticalAlign=top;html=1;outlineConnect=0;" vertex="1" parent="1">
          <mxGeometry x="580" y="378" width="30" height="61" as="geometry" />
        </mxCell>
        <mxCell id="9IPaRKAsTYbbkbORtt6L-18" value="" style="endArrow=none;html=1;rounded=0;entryX=0;entryY=0.5;entryDx=0;entryDy=0;" edge="1" parent="1" target="9IPaRKAsTYbbkbORtt6L-2">
          <mxGeometry width="50" height="50" relative="1" as="geometry">
            <mxPoint x="120" y="410" as="sourcePoint" />
            <mxPoint x="170" y="360" as="targetPoint" />
          </mxGeometry>
        </mxCell>
        <mxCell id="9IPaRKAsTYbbkbORtt6L-19" value="" style="endArrow=none;html=1;rounded=0;entryX=0;entryY=0.5;entryDx=0;entryDy=0;" edge="1" parent="1" target="9IPaRKAsTYbbkbORtt6L-4">
          <mxGeometry width="50" height="50" relative="1" as="geometry">
            <mxPoint x="120" y="410" as="sourcePoint" />
            <mxPoint x="280" y="210" as="targetPoint" />
          </mxGeometry>
        </mxCell>
        <mxCell id="9IPaRKAsTYbbkbORtt6L-20" value="" style="endArrow=none;html=1;rounded=0;entryX=0;entryY=0.5;entryDx=0;entryDy=0;" edge="1" parent="1" target="9IPaRKAsTYbbkbORtt6L-8">
          <mxGeometry width="50" height="50" relative="1" as="geometry">
            <mxPoint x="120" y="410" as="sourcePoint" />
            <mxPoint x="190" y="420" as="targetPoint" />
          </mxGeometry>
        </mxCell>
        <mxCell id="9IPaRKAsTYbbkbORtt6L-21" value="" style="endArrow=none;html=1;rounded=0;entryX=0.038;entryY=0.38;entryDx=0;entryDy=0;entryPerimeter=0;" edge="1" parent="1" target="9IPaRKAsTYbbkbORtt6L-7">
          <mxGeometry width="50" height="50" relative="1" as="geometry">
            <mxPoint x="120" y="410" as="sourcePoint" />
            <mxPoint x="280" y="639" as="targetPoint" />
            <Array as="points" />
          </mxGeometry>
        </mxCell>
        <mxCell id="9IPaRKAsTYbbkbORtt6L-22" value="" style="endArrow=none;html=1;rounded=0;entryX=0.045;entryY=0.673;entryDx=0;entryDy=0;entryPerimeter=0;" edge="1" parent="1" target="9IPaRKAsTYbbkbORtt6L-6">
          <mxGeometry width="50" height="50" relative="1" as="geometry">
            <mxPoint x="120" y="410" as="sourcePoint" />
            <mxPoint x="290" y="649" as="targetPoint" />
          </mxGeometry>
        </mxCell>
        <mxCell id="9IPaRKAsTYbbkbORtt6L-24" value="" style="endArrow=none;html=1;rounded=0;" edge="1" parent="1" target="9IPaRKAsTYbbkbORtt6L-5">
          <mxGeometry width="50" height="50" relative="1" as="geometry">
            <mxPoint x="120" y="410" as="sourcePoint" />
            <mxPoint x="590" y="400" as="targetPoint" />
          </mxGeometry>
        </mxCell>
        <mxCell id="9IPaRKAsTYbbkbORtt6L-27" value="" style="endArrow=none;html=1;rounded=0;exitX=1;exitY=0.5;exitDx=0;exitDy=0;" edge="1" parent="1" source="9IPaRKAsTYbbkbORtt6L-3">
          <mxGeometry width="50" height="50" relative="1" as="geometry">
            <mxPoint x="430" y="450" as="sourcePoint" />
            <mxPoint x="550" y="410" as="targetPoint" />
          </mxGeometry>
        </mxCell>
        <mxCell id="9IPaRKAsTYbbkbORtt6L-28" value="" style="endArrow=none;html=1;rounded=0;" edge="1" parent="1" source="9IPaRKAsTYbbkbORtt6L-5">
          <mxGeometry width="50" height="50" relative="1" as="geometry">
            <mxPoint x="440" y="460" as="sourcePoint" />
            <mxPoint x="550" y="410" as="targetPoint" />
          </mxGeometry>
        </mxCell>
        <mxCell id="9IPaRKAsTYbbkbORtt6L-29" value="" style="endArrow=none;html=1;rounded=0;exitX=1;exitY=0.5;exitDx=0;exitDy=0;" edge="1" parent="1" source="9IPaRKAsTYbbkbORtt6L-7">
          <mxGeometry width="50" height="50" relative="1" as="geometry">
            <mxPoint x="470" y="610" as="sourcePoint" />
            <mxPoint x="550" y="410" as="targetPoint" />
          </mxGeometry>
        </mxCell>
        <mxCell id="9IPaRKAsTYbbkbORtt6L-30" value="" style="endArrow=none;html=1;rounded=0;exitX=1;exitY=0.5;exitDx=0;exitDy=0;" edge="1" parent="1" source="9IPaRKAsTYbbkbORtt6L-6">
          <mxGeometry width="50" height="50" relative="1" as="geometry">
            <mxPoint x="480" y="570" as="sourcePoint" />
            <mxPoint x="550" y="410" as="targetPoint" />
          </mxGeometry>
        </mxCell>
        <mxCell id="9IPaRKAsTYbbkbORtt6L-31" value="" style="endArrow=none;html=1;rounded=0;exitX=1;exitY=0.5;exitDx=0;exitDy=0;" edge="1" parent="1" source="9IPaRKAsTYbbkbORtt6L-8">
          <mxGeometry width="50" height="50" relative="1" as="geometry">
            <mxPoint x="400" y="568" as="sourcePoint" />
            <mxPoint x="550" y="410" as="targetPoint" />
          </mxGeometry>
        </mxCell>
      </root>
    </mxGraphModel>
  </diagram>
</mxfile>
